<?xml version="1.0" encoding="UTF-8"?>
<svg xmlns="http://www.w3.org/2000/svg" xmlns:xlink="http://www.w3.org/1999/xlink" width="512px" height="512px"
     viewBox="0 0 512 512" version="1.1">
    <rect width="100%" height="100%" fill="#7d3af2"/>
    <g id="surface1">
        <path style=" stroke:none;fill-rule:nonzero;fill:rgb(100%,100%,100%);fill-opacity:1;"
              d="M 405.332031 149.332031 C 405.332031 125.867188 386.347656 106.667969 362.667969 106.667969 L 298.667969 106.667969 L 298.667969 149.332031 L 362.667969 149.332031 L 362.667969 205.867188 L 288 298.667969 L 213.332031 298.667969 L 213.332031 192 L 128 192 C 80.851562 192 42.667969 230.1875 42.667969 277.332031 L 42.667969 341.332031 L 85.332031 341.332031 C 85.332031 376.746094 113.921875 405.332031 149.332031 405.332031 C 184.746094 405.332031 213.332031 376.746094 213.332031 341.332031 L 309.332031 341.332031 L 405.332031 220.800781 L 405.332031 149.332031 M 149.332031 362.667969 C 137.601562 362.667969 128 353.066406 128 341.332031 L 170.667969 341.332031 C 170.667969 353.066406 161.066406 362.667969 149.332031 362.667969 M 170.667969 298.667969 L 85.332031 298.667969 L 85.332031 277.332031 C 85.332031 253.867188 104.535156 234.667969 128 234.667969 L 170.667969 234.667969 L 170.667969 298.667969 M 405.332031 277.332031 C 369.921875 277.332031 341.332031 305.921875 341.332031 341.332031 C 341.332031 376.746094 369.921875 405.332031 405.332031 405.332031 C 440.746094 405.332031 469.332031 376.746094 469.332031 341.332031 C 469.332031 305.921875 440.746094 277.332031 405.332031 277.332031 M 405.332031 362.667969 C 393.601562 362.667969 384 353.066406 384 341.332031 C 384 329.601562 393.601562 320 405.332031 320 C 417.066406 320 426.667969 329.601562 426.667969 341.332031 C 426.667969 353.066406 417.066406 362.667969 405.332031 362.667969 M 213.332031 170.667969 L 106.667969 170.667969 L 106.667969 128 L 213.332031 128 Z M 213.332031 170.667969 "/>
    </g>
</svg>
