<svg width="512" height="512" viewBox="0 0 512 512" fill="none" xmlns="http://www.w3.org/2000/svg">
<g clip-path="url(#clip0_1_80)">
<path d="M512 0H0V512H512V0Z" fill="#7D3AF2"/>
<path d="M368 175.998C368 158.4 353.761 144 336.001 144H288.001V175.998H336.001V218.4L280 288.001H223.999V207.999H159.999C124.638 207.999 96 236.64 96 271.999V319.999H127.998C127.998 346.56 149.441 367.999 175.999 367.999C202.559 367.999 223.999 346.56 223.999 319.999H295.999L368 229.6V175.998ZM175.999 336.001C167.201 336.001 159.999 328.8 159.999 319.999H192.001C192.001 328.8 184.799 336.001 175.999 336.001ZM192.001 288.001H127.998V271.999C127.998 254.4 142.401 240.001 159.999 240.001H192.001V288.001ZM368 271.999C341.442 271.999 319.999 293.441 319.999 319.999C319.999 346.56 341.442 367.999 368 367.999C394.56 367.999 416 346.56 416 319.999C416 293.441 394.56 271.999 368 271.999ZM368 336.001C359.202 336.001 352.001 328.8 352.001 319.999C352.001 311.201 359.202 304 368 304C376.801 304 384.002 311.201 384.002 319.999C384.002 328.8 376.801 336.001 368 336.001ZM223.999 192H144V159.999H223.999V192Z" fill="white"/>
</g>
<defs>
<clipPath id="clip0_1_80">
<rect width="512" height="512" rx="256" fill="white"/>
</clipPath>
</defs>
</svg>
