<svg width="256" height="256" viewBox="0 0 256 256" fill="none" xmlns="http://www.w3.org/2000/svg">
<g clip-path="url(#clip0_1_65)">
<path d="M256 0H0V256H256V0Z" fill="#7D3AF2"/>
<path d="M184 87.9991C184 79.1998 176.881 72 168.001 72H144.001V87.9991H168.001V109.2L140 144H111.999V104H79.9997C62.3189 104 48 118.32 48 135.999V160H63.9991C63.9991 173.28 74.7204 184 87.9993 184C101.28 184 111.999 173.28 111.999 160H148L184 114.8V87.9991ZM87.9993 168.001C83.6003 168.001 79.9997 164.4 79.9997 160H96.0003C96.0003 164.4 92.3997 168.001 87.9993 168.001ZM96.0003 144H63.9991V135.999C63.9991 127.2 71.2003 120 79.9997 120H96.0003V144ZM184 135.999C170.721 135.999 160 146.721 160 160C160 173.28 170.721 184 184 184C197.28 184 208 173.28 208 160C208 146.721 197.28 135.999 184 135.999ZM184 168.001C179.601 168.001 176 164.4 176 160C176 155.601 179.601 152 184 152C188.4 152 192.001 155.601 192.001 160C192.001 164.4 188.4 168.001 184 168.001ZM111.999 96.0001H72.0001V79.9996H111.999V96.0001Z" fill="white"/>
</g>
<defs>
<clipPath id="clip0_1_65">
<rect width="256" height="256" rx="64" fill="white"/>
</clipPath>
</defs>
</svg>
