<svg width="192" height="192" viewBox="0 0 192 192" fill="none" xmlns="http://www.w3.org/2000/svg">
<g clip-path="url(#clip0_1_70)">
<path d="M192 0H0V192H192V0Z" fill="#7D3AF2"/>
<path d="M138 65.9993C138 59.3998 132.661 54 126.001 54H108V65.9993H126.001V81.8999L105 108H83.9996V77.9998H59.9998C46.7392 77.9998 36 88.7401 36 102V120H47.9993C47.9993 129.96 56.0403 138 65.9995 138C75.9597 138 83.9996 129.96 83.9996 120H111L138 86.1V65.9993ZM65.9995 126C62.7002 126 59.9998 123.3 59.9998 120H72.0002C72.0002 123.3 69.2998 126 65.9995 126ZM72.0002 108H47.9993V102C47.9993 95.4 53.4003 90.0002 59.9998 90.0002H72.0002V108ZM138 102C128.041 102 120 110.04 120 120C120 129.96 128.041 138 138 138C147.96 138 156 129.96 156 120C156 110.04 147.96 102 138 102ZM138 126C134.701 126 132 123.3 132 120C132 116.7 134.701 114 138 114C141.3 114 144.001 116.7 144.001 120C144.001 123.3 141.3 126 138 126ZM83.9996 72.0001H54.0001V59.9997H83.9996V72.0001Z" fill="white"/>
</g>
<defs>
<clipPath id="clip0_1_70">
<rect width="192" height="192" rx="48" fill="white"/>
</clipPath>
</defs>
</svg>
