<svg width="96" height="96" viewBox="0 0 96 96" fill="none" xmlns="http://www.w3.org/2000/svg">
<g clip-path="url(#clip0_1_75)">
<path d="M96 0H0V96H96V0Z" fill="#7D3AF2"/>
<path d="M68.9999 32.9997C68.9999 29.6999 66.3303 27 63.0003 27H54.0002V32.9997H63.0003V40.95L52.5 54.0002H41.9998V38.9999H29.9999C23.3696 38.9999 18 44.37 18 50.9998V59.9998H23.9997C23.9997 64.98 28.0201 68.9999 32.9997 68.9999C37.9799 68.9999 41.9998 64.98 41.9998 59.9998H55.4999L68.9999 43.05V32.9997ZM32.9997 63.0002C31.3501 63.0002 29.9999 61.65 29.9999 59.9998H36.0001C36.0001 61.65 34.6499 63.0002 32.9997 63.0002ZM36.0001 54.0002H23.9997V50.9998C23.9997 47.7 26.7001 45.0001 29.9999 45.0001H36.0001V54.0002ZM68.9999 50.9998C64.0204 50.9998 59.9999 55.0202 59.9999 59.9998C59.9999 64.98 64.0204 68.9999 68.9999 68.9999C73.9801 68.9999 78 64.98 78 59.9998C78 55.0202 73.9801 50.9998 68.9999 50.9998ZM68.9999 63.0002C67.3503 63.0002 66.0001 61.65 66.0001 59.9998C66.0001 58.3502 67.3503 57 68.9999 57C70.6501 57 72.0003 58.3502 72.0003 59.9998C72.0003 61.65 70.6501 63.0002 68.9999 63.0002ZM41.9998 36.0001H27.0001V29.9998H41.9998V36.0001Z" fill="white"/>
</g>
<defs>
<clipPath id="clip0_1_75">
<rect width="96" height="96" rx="24" fill="white"/>
</clipPath>
</defs>
</svg>
